<svg xmlns="http://www.w3.org/2000/svg" width="22" height="22" viewBox="0 0 22 22">
    <defs>
        <linearGradient id="linear-gradient" x1=".5" x2=".5" y2="1" gradientUnits="objectBoundingBox">
            <stop offset="0" stop-color="#fff"/>
            <stop offset="1" stop-color="gray"/>
        </linearGradient>
        <linearGradient id="linear-gradient-2" x1=".5" x2=".5" y2="1" gradientUnits="objectBoundingBox">
            <stop offset="0" stop-color="#ffdc64"/>
            <stop offset="1" stop-color="#db8f27"/>
        </linearGradient>
        <style>
            .cls-2{fill:url(#linear-gradient-2)}.cls-3,.cls-4{stroke:none}.cls-4{fill:#fff}
        </style>
    </defs>
    <g id="action_icon" transform="translate(-206 -645)">
        <circle id="Ellipse_227" cx="11" cy="11" r="11" fill="url(#linear-gradient)" opacity="0.343" transform="translate(206 645)"/>
        <g id="surf" transform="translate(212 651)">
            <g id="Path_8456" class="cls-2">
                <path d="M402.404 295.08c-.52 0-.82-.155-1.019-.258-.063-.033-.1-.051-.132-.061l-.708-.214.461-.577c.13-.162.258-.33.38-.498l.244-.336.375.178c.045.022.087.043.126.064.125.064.148.076.273.076.126 0 .148-.012.273-.076.199-.103.499-.258 1.02-.258h.5v1.626h-.5c-.126 0-.149.011-.273.076-.2.103-.5.258-1.02.258z" class="cls-3" transform="translate(-393.052 -287.533)"/>
                <path d="M402.404 294.58c.4 0 .616-.112.79-.202.148-.077.255-.132.502-.132v-.626c-.399 0-.615.112-.79.202-.148.076-.255.132-.502.132s-.354-.056-.502-.132l-.112-.056c-.124.171-.255.344-.393.516.078.024.142.057.218.096.174.09.39.202.79.202m0 1c-.643 0-1.037-.204-1.25-.314l-.06-.03-1.402-.423.923-1.155c.125-.156.248-.318.365-.48l.488-.671.75.355.142.071.04.02h.007l.04-.02c.212-.11.606-.313 1.248-.313h1v2.626h-1.003l-.04.02c-.212.11-.607.314-1.249.314z" class="cls-4" transform="translate(-393.052 -287.533)"/>
            </g>
            <g id="Path_8457" class="cls-2">
                <path d="M328.79 357.362l1.005-.932c.144-.132.286-.27.422-.406.162-.162.322-.33.476-.5l.12-.133.176-.026c.109-.017.224-.025.343-.025.52 0 .82.155 1.019.257.125.065.147.077.273.077.125 0 .148-.012.273-.076.198-.103.498-.258 1.019-.258h.5v1.626h-.5c-.126 0-.148.011-.273.076-.199.103-.499.258-1.02.258-.52 0-.82-.155-1.018-.258-.125-.065-.148-.076-.273-.076-.126 0-.148.011-.273.076-.18.093-.451.233-.9.255l-1.37.065z" class="cls-3" transform="translate(-323.272 -348.459)"/>
                <path d="M332.624 356.8c.399 0 .615-.112.79-.202.148-.077.255-.132.502-.132v-.626c-.4 0-.616.112-.79.202-.148.076-.255.132-.502.132s-.354-.056-.503-.132c-.174-.09-.39-.202-.79-.202-.1 0-.188.007-.267.019-.157.174-.321.347-.493.519-.143.142-.288.282-.436.42.34-.017.535-.118.694-.2.149-.077.256-.132.503-.132s.354.055.502.132c.174.09.39.202.79.202m-5.18 1.127l2.012-1.864c.138-.128.276-.26.408-.392.156-.156.31-.318.458-.482l.24-.266.353-.053c.133-.02.273-.03.417-.03.642 0 1.036.204 1.248.313l.04.02h.007l.04-.02c.212-.11.607-.313 1.249-.313h1v2.626h-1.004l-.04.02c-.212.11-.606.314-1.248.314-.643 0-1.037-.204-1.25-.314l-.039-.02h-.007l-.04.02c-.191.1-.547.283-1.105.31l-2.74.13z" class="cls-4" transform="translate(-323.272 -348.459)"/>
            </g>
            <g id="Path_8458" class="cls-2">
                <path d="M278.508 418.518c-.52 0-.82-.155-1.02-.258-.124-.065-.147-.076-.272-.076-.126 0-.148.011-.273.076-.199.103-.499.258-1.02.258-.52 0-.82-.155-1.018-.258-.08-.04-.112-.057-.149-.065l-1.036-.242.848-.644c.18-.136.362-.281.539-.43l.255-.213.295.153c.117.06.141.073.267.073.125 0 .148-.012.273-.076.198-.103.498-.258 1.019-.258.52 0 .82.155 1.018.257.126.065.148.077.274.077.125 0 .148-.012.272-.076.2-.103.5-.258 1.02-.258h.5v1.626h-.5c-.126 0-.148.011-.273.076-.199.103-.499.258-1.02.258z" class="cls-3" transform="translate(-269.156 -408.405)"/>
                <path d="M278.508 418.018c.399 0 .615-.112.79-.202.148-.077.255-.132.502-.132v-.626c-.4 0-.616.112-.79.202-.148.076-.255.132-.502.132s-.354-.056-.503-.132c-.174-.09-.39-.202-.79-.202-.398 0-.615.112-.789.202-.148.076-.255.132-.502.132-.244 0-.351-.054-.496-.129-.185.154-.37.303-.558.445.1.023.174.061.264.108.174.09.39.202.79.202.399 0 .615-.112.79-.202.148-.077.255-.132.502-.132s.354.055.502.132c.174.09.39.202.79.202m0 1c-.642 0-1.037-.204-1.249-.314l-.04-.02h-.007l-.04.02c-.211.11-.606.314-1.248.314s-1.037-.204-1.249-.314l-.055-.028-2.05-.479 1.696-1.286c.174-.132.349-.272.52-.415l.51-.427.59.306.034.017h.007l.04-.02c.212-.11.606-.314 1.249-.314.641 0 1.036.204 1.248.313l.04.02h.007l.04-.02c.212-.11.607-.313 1.249-.313h1v2.626h-1.004l-.04.02c-.212.11-.606.314-1.248.314z" class="cls-4" transform="translate(-269.156 -408.405)"/>
            </g>
            <g id="Path_8459" class="cls-2">
                <path d="M-.263 56.14l1.166-1.166.156-.156-.053-.053-.02-.02-.403-.404-.02-.019-.053-.054-.156.157-1.166 1.166.322-1.617.201-1.012c.138-.695.501-1.52 1.05-2.385.535-.843 1.227-1.7 2.003-2.475 1.202-1.201 2.69-2.208 4.306-2.91l.625-.273.071.679c.11 1.039.942 1.875 1.981 1.987l.678.073-.274.625c-.702 1.601-1.686 3.042-2.925 4.28-.776.776-1.632 1.47-2.475 2.004-.866.549-1.69.912-2.385 1.05l-1.012.201-1.617.322z" class="cls-3" transform="translate(0 -44.718)"/>
                <path d="M1.257 55.328l1.012-.202c.634-.126 1.4-.465 2.214-.981.813-.516 1.64-1.185 2.39-1.935 1.432-1.432 2.303-2.947 2.82-4.128-1.275-.138-2.29-1.156-2.424-2.432-1.197.52-2.739 1.393-4.151 2.805-.75.75-1.42 1.577-1.935 2.39-.516.814-.855 1.58-.982 2.214L0 54.071l.772-.772c.173-.173.4-.26.628-.26.125 0 .25.027.367.08l-.85.85.02.019.403.404.02.019.85-.85c-.043-.095-.104-.184-.182-.262-.077-.077-.166-.138-.261-.18l1.368-1.368.442.442-1.368 1.368c.148.327.088.727-.18.995l-.772.772m-2.882 1.783l.04-.197-.197.039.236-.236.565-2.841.202-1.012c.15-.754.536-1.638 1.118-2.555.554-.874 1.27-1.76 2.072-2.56 1.245-1.246 2.787-2.288 4.46-3.016l1.25-.544.143 1.357c.084.806.73 1.455 1.537 1.542l1.356.146-.548 1.25c-.727 1.658-1.746 3.15-3.03 4.433-.8.802-1.687 1.518-2.56 2.072-.918.581-1.8.968-2.555 1.118l-1.012.202-2.841.565-.236.236z" class="cls-4" transform="translate(0 -44.718)"/>
            </g>
            <g id="Path_8460" class="cls-2">
                <path d="M381.476 4.07l-.353-.008c-1.406-.031-2.527-1.156-2.552-2.562l-.006-.352.329-.124c1.384-.524 2.776-.705 2.835-.712l.624-.08-.064.626c-.006.059-.15 1.444-.67 2.835l-.01.024-.008.021-.125.331z" class="cls-3" transform="translate(-371.191 -.808)"/>
                <path d="M381.792.808s-1.376.174-2.721.683c.02 1.13.934 2.046 2.062 2.07l.017-.044c.504-1.346.642-2.709.642-2.709m1.121-1.15l-.126 1.25c-.006.062-.158 1.51-.7 2.96l-.01.028-.008.018-.25.663-.707-.016c-1.675-.036-3.01-1.377-3.04-3.052l-.013-.704.658-.249c1.439-.545 2.888-.732 2.949-.74l1.247-.158z" class="cls-4" transform="translate(-371.191 -.808)"/>
            </g>
        </g>
    </g>
</svg>
