<svg xmlns="http://www.w3.org/2000/svg" xmlns:xlink="http://www.w3.org/1999/xlink" width="12.612" height="12.572" viewBox="0 0 12.612 12.572"><defs><style>.a{fill:url(#a);}</style><linearGradient id="a" x1="0.5" x2="0.5" y2="1" gradientUnits="objectBoundingBox"><stop offset="0" stop-color="#ffdc64"/><stop offset="1" stop-color="#db8f27"/></linearGradient></defs><g transform="translate(0 0)"><path class="a" d="M401.655,294.518a1.95,1.95,0,0,0,1.871,0,1.084,1.084,0,0,1,.6-.156v-.742a1.811,1.811,0,0,0-.936.239,1.211,1.211,0,0,1-1.19,0c-.041-.021-.085-.044-.132-.066q-.221.3-.466.612A1.471,1.471,0,0,1,401.655,294.518Z" transform="translate(-391.509 -286.407)"/><path class="a" d="M330.135,356.974a1.8,1.8,0,0,0,.823-.236,1.211,1.211,0,0,1,1.19,0,1.95,1.95,0,0,0,1.871,0,1.084,1.084,0,0,1,.6-.156v-.742a1.811,1.811,0,0,0-.936.239,1.211,1.211,0,0,1-1.19,0,1.812,1.812,0,0,0-.936-.239,2.124,2.124,0,0,0-.317.023q-.279.309-.584.615Q330.4,356.731,330.135,356.974Z" transform="translate(-322.003 -347.095)"/><path class="a" d="M275.183,417.956a1.95,1.95,0,0,0,1.871,0,1.211,1.211,0,0,1,1.19,0,1.95,1.95,0,0,0,1.871,0,1.084,1.084,0,0,1,.6-.156v-.742a1.811,1.811,0,0,0-.936.239,1.211,1.211,0,0,1-1.19,0,1.95,1.95,0,0,0-1.871,0,1.21,1.21,0,0,1-1.183,0q-.327.274-.661.527A1.285,1.285,0,0,1,275.183,417.956Z" transform="translate(-268.099 -406.805)"/><path class="a" d="M2.618,55.024A1.055,1.055,0,0,1,2.4,56.2l-.915.915,1.2-.239a8.159,8.159,0,0,0,2.624-1.163,16.852,16.852,0,0,0,2.831-2.292,16.05,16.05,0,0,0,3.342-4.891A3.247,3.247,0,0,1,8.613,45.65a16.013,16.013,0,0,0-4.919,3.324A16.851,16.851,0,0,0,1.4,51.805,8.16,8.16,0,0,0,.239,54.429L0,55.628l.914-.914A1.055,1.055,0,0,1,2.094,54.5L1.086,55.507l.023.023.479.479.023.023Zm1.1-2.145.524.524L2.618,55.024a1.051,1.051,0,0,0-.524-.524Z" transform="translate(0 -44.545)"/><path class="a" d="M382.295.808a16.033,16.033,0,0,0-3.224.81,2.5,2.5,0,0,0,2.444,2.453l.02-.052A14.566,14.566,0,0,0,382.295.808Z" transform="translate(-369.733 -0.808)"/></g></svg>