<svg xmlns="http://www.w3.org/2000/svg" width="17" height="17" viewBox="0 0 17 17"><defs><style>.a{fill:#7b7b7b;}</style></defs><g transform="translate(0)"><path class="a" d="M497,60.445h0Z" transform="translate(-480.498 -58.438)"/><g transform="translate(0 0)"><path class="a" d="M161.573,0h-1.509a.5.5,0,0,0-.352.146L150.053,9.8l2.213,2.213,9.659-9.659a.5.5,0,0,0,.146-.352V.5a.5.5,0,0,0-.5-.5Z" transform="translate(-145.071 0)"/><path class="a" d="M1.986,359.886a1.6,1.6,0,0,0-.468,1.072,1.562,1.562,0,1,0,1.6,1.611,1.556,1.556,0,0,0,1.054-.456l.9-.9L2.872,359Z" transform="translate(-0.001 -347.08)"/><path class="a" d="M0,0H3.13V.849H0Z" transform="translate(9.202 11.418) rotate(-45)"/><path class="a" d="M5.582,7.8,7.8,5.582,2.359.146A.5.5,0,0,0,2.007,0H.5A.5.5,0,0,0,0,.5V2.007a.5.5,0,0,0,.146.352Z" transform="translate(0 0)"/><path class="a" d="M362.562,360.958a1.6,1.6,0,0,0-.467-1.072l-.886-.886L359,361.209l.9.9a1.56,1.56,0,0,1,1.51,1.51,1.562,1.562,0,1,0,1.148-2.665Z" transform="translate(-347.08 -347.08)"/><path class="a" d="M278.785,273.28a.5.5,0,0,0-.7,0l-4.8,4.8a.5.5,0,0,0,.7.7l4.8-4.8A.5.5,0,0,0,278.785,273.28Z" transform="translate(-264.064 -264.065)"/><path class="a" d="M65.108,273.28a.5.5,0,0,0-.7.7l4.8,4.8a.5.5,0,0,0,.7-.7Z" transform="translate(-62.124 -264.065)"/></g></g></svg>