<svg xmlns="http://www.w3.org/2000/svg" width="27" height="16.303" viewBox="0 0 27 16.303"><defs><style>.a{fill:#7b7b7b;fill-rule:evenodd;}</style></defs><path class="a" d="M26.909,12.131,25.1,4.286A5.478,5.478,0,0,0,19.793,0H7.2A5.471,5.471,0,0,0,1.9,4.286L.089,12.131A3.38,3.38,0,0,0,3.329,16.3a2.615,2.615,0,0,0,2.24-1.294l1.394-2.37A1.328,1.328,0,0,1,8.1,11.983H18.9a1.328,1.328,0,0,1,1.138.657l1.394,2.369A2.616,2.616,0,0,0,23.669,16.3,3.38,3.38,0,0,0,26.909,12.131ZM10.11,6.8h-.9V7.72a.791.791,0,1,1-1.582,0V6.8h-.9a.807.807,0,0,1,0-1.613h.9V4.263a.791.791,0,1,1,1.582,0v.922h.9a.807.807,0,0,1,0,1.613Zm6.777,0a.807.807,0,1,1,.791-.807A.8.8,0,0,1,16.887,6.8Zm1.694,1.728a.807.807,0,1,1,.791-.807A.8.8,0,0,1,18.582,8.526Zm0-3.456a.807.807,0,1,1,.791-.807A.8.8,0,0,1,18.582,5.07ZM20.276,6.8a.807.807,0,1,1,.791-.807A.8.8,0,0,1,20.276,6.8Zm0,0" transform="translate(0.001)"/></svg>