<svg xmlns="http://www.w3.org/2000/svg" xmlns:xlink="http://www.w3.org/1999/xlink" width="22" height="22" viewBox="0 0 22 22"><defs><style>.a{opacity:0.343;fill:url(#a);}.b{stroke:#fff;fill:url(#b);}.c{stroke:none;}.d{fill:none;}</style><linearGradient id="a" x1="0.5" x2="0.5" y2="1" gradientUnits="objectBoundingBox"><stop offset="0" stop-color="#fff"/><stop offset="1" stop-color="gray"/></linearGradient><linearGradient id="b" x1="0.5" x2="0.5" y2="1" gradientUnits="objectBoundingBox"><stop offset="0" stop-color="#ffdc64"/><stop offset="1" stop-color="#db8f27"/></linearGradient></defs><g transform="translate(-24 -645)"><circle class="a" cx="11" cy="11" r="11" transform="translate(24 645)"/><g transform="translate(26.646 649.41)"><g class="b" transform="translate(4.354 -0.41)"><rect class="c" width="9" height="14" rx="3"/><rect class="d" x="0.5" y="0.5" width="8" height="13" rx="2.5"/></g><g class="b" transform="translate(0.354 3.59)"><path class="c" d="M3,0H3A0,0,0,0,1,3,0V7A0,0,0,0,1,3,7H3A3,3,0,0,1,0,4V3A3,3,0,0,1,3,0Z"/><path class="d" d="M2.4.5h0a.1.1,0,0,1,.1.1V6.4a.1.1,0,0,1-.1.1h0A1.9,1.9,0,0,1,.5,4.6V2.4A1.9,1.9,0,0,1,2.4.5Z"/></g><g class="b" transform="translate(14.354 3.59)"><path class="c" d="M0,0H0A3,3,0,0,1,3,3V4A3,3,0,0,1,0,7H0A0,0,0,0,1,0,7V0A0,0,0,0,1,0,0Z"/><path class="d" d="M.6.5h0A1.9,1.9,0,0,1,2.5,2.4V4.6A1.9,1.9,0,0,1,.6,6.5h0a.1.1,0,0,1-.1-.1V.6A.1.1,0,0,1,.6.5Z"/></g></g></g></svg>