<svg xmlns="http://www.w3.org/2000/svg" xmlns:xlink="http://www.w3.org/1999/xlink" width="12.119" height="12.119" viewBox="0 0 12.119 12.119"><defs><style>.a{fill:url(#a);}</style><linearGradient id="a" x1="0.5" x2="0.5" y2="1" gradientUnits="objectBoundingBox"><stop offset="0" stop-color="#ffdc64"/><stop offset="1" stop-color="#db8f27"/></linearGradient></defs><path class="a" d="M10.388,5.194V2.164a.433.433,0,0,0-.433-.433H6.925a1.731,1.731,0,0,0-3.463,0H.433A.433.433,0,0,0,0,2.164V5.255a1.7,1.7,0,0,1,.433-.061,1.731,1.731,0,1,1,0,3.463A1.706,1.706,0,0,1,0,8.595v3.091a.433.433,0,0,0,.433.433H3.524a1.7,1.7,0,0,1-.061-.433,1.731,1.731,0,1,1,3.463,0,1.706,1.706,0,0,1-.061.433H9.955a.433.433,0,0,0,.433-.433V8.656a1.731,1.731,0,1,0,0-3.463Z" transform="translate(0 0)"/></svg>