<svg xmlns="http://www.w3.org/2000/svg" xmlns:xlink="http://www.w3.org/1999/xlink" width="14.001" height="14.001" viewBox="0 0 14.001 14.001"><defs><style>.a{fill:url(#a);}</style><linearGradient id="a" x1="0.5" x2="0.5" y2="1" gradientUnits="objectBoundingBox"><stop offset="0" stop-color="#ffdc64"/><stop offset="1" stop-color="#db8f27"/></linearGradient></defs><g transform="translate(-4 -3.999)"><path class="a" d="M23.5,39.153a2.157,2.157,0,0,0-.165-.2,5.541,5.541,0,0,1-2.205,3.233,5.914,5.914,0,0,1-3.378.94,10.267,10.267,0,0,1-1.848-.188,6.98,6.98,0,0,0,8.025.017A4.785,4.785,0,0,0,23.5,39.153Z" transform="translate(-8.925 -26.213)"/><path class="a" d="M35.414,21.1a6.289,6.289,0,0,0-4.368-1.28,4.662,4.662,0,0,0,.337,2.8,5.15,5.15,0,0,1,3.811,1.88,4.826,4.826,0,0,1,.623,3.617,7.032,7.032,0,0,0,1.88-2.628A6.224,6.224,0,0,0,35.414,21.1Z" transform="translate(-20.214 -11.846)"/><path class="a" d="M9.671,36.128l-.114.031a3.287,3.287,0,0,1-.783.094,6.279,6.279,0,0,1-3.3-1.188,7.012,7.012,0,0,0,1.767,2.791c2.432.636,4.379.479,5.785-.47a5.175,5.175,0,0,0,2.066-3.24,5.442,5.442,0,0,0-2.8-1.039A4.262,4.262,0,0,1,9.671,36.128Z" transform="translate(-1.103 -21.831)"/><path class="a" d="M8.013,15.073c-.66-1.223-2-4.193-1.178-6.868A5.25,5.25,0,0,1,8.7,5.56,7.009,7.009,0,0,0,4,12.17a7.117,7.117,0,0,0,.16,1.488A5.841,5.841,0,0,0,8.013,15.073Z" transform="translate(0 -1.171)"/><path class="a" d="M16.546,7.181c-.809,2.622.7,5.685,1.21,6.609a3.975,3.975,0,0,0,2.214-2.761A4.824,4.824,0,0,1,19.8,7.2a5.008,5.008,0,0,1,3.375-2.557,6.953,6.953,0,0,0-3.719-.6,5.2,5.2,0,0,0-2.906,3.137Z" transform="translate(-9.234 0)"/><path class="a" d="M32.02,10.33c-.007.017-.013.035-.02.05a6.847,6.847,0,0,1,4.508,1.4,6.475,6.475,0,0,1,2.308,3.735A6.984,6.984,0,0,0,35.555,7.9l.005.018C33.725,8.378,32.533,9.188,32.02,10.33Z" transform="translate(-21 -2.925)"/></g></svg>