<svg xmlns="http://www.w3.org/2000/svg" width="22" height="22" viewBox="0 0 22 22">
    <defs>
        <linearGradient id="linear-gradient" x1=".5" x2=".5" y2="1" gradientUnits="objectBoundingBox">
            <stop offset="0" stop-color="#fff"/>
            <stop offset="1" stop-color="gray"/>
        </linearGradient>
        <linearGradient id="linear-gradient-2" x1=".5" x2=".5" y2="1" gradientUnits="objectBoundingBox">
            <stop offset="0" stop-color="#ffdc64"/>
            <stop offset="1" stop-color="#db8f27"/>
        </linearGradient>
        <style>
            .cls-2{fill:url(#linear-gradient-2)}.cls-3,.cls-4{stroke:none}.cls-4{fill:#fff}
        </style>
    </defs>
    <g id="sports_icon" transform="translate(-289 -645)">
        <g id="sports_icon-2">
            <circle id="Ellipse_228" cx="11" cy="11" r="11" fill="url(#linear-gradient)" opacity="0.343" transform="translate(289 645)"/>
            <g id="Glyph" transform="translate(289 645.001)">
                <g id="Path_8461" class="cls-2">
                    <path d="M19.925 44.713c-1.553 0-3.045-.474-4.313-1.37l.383-.899c.578.112 1.17.172 1.758.179H17.762l.16.002c1.04 0 2.05-.296 2.924-.857 1-.705 1.71-1.747 1.998-2.936l.22-.908.634.687c.072.079.14.163.203.25.927 1.309.79 3.009.511 4.205l-.043.187-.157.11c-1.263.883-2.746 1.35-4.287 1.35z" class="cls-3" transform="translate(-8.925 -26.213)"/>
                    <path d="M23.33 38.95c-.317 1.31-1.101 2.46-2.205 3.233-.956.616-2.068.942-3.203.942-.058 0-.116 0-.174-.002-.62-.007-1.24-.07-1.848-.188 1.206.852 2.616 1.278 4.025 1.278 1.4 0 2.799-.42 4-1.26.26-1.118.383-2.653-.43-3.8-.05-.071-.106-.139-.165-.203m-.531-2.053l1.267 1.376c.086.093.167.193.241.296l.002.003.002.003c.817 1.153 1.02 2.746.588 4.604l-.087.373-.314.22c-1.347.943-2.929 1.44-4.573 1.44-1.657 0-3.248-.504-4.602-1.46l.768-1.799c.548.107 1.109.164 1.667.17h.02c.048.002.096.002.144.002.94 0 1.854-.267 2.645-.772.897-.635 1.533-1.57 1.791-2.639l.44-1.817z" class="cls-4" transform="translate(-8.925 -26.213)"/>
                </g>
                <g id="Path_8462" class="cls-2">
                    <path d="M35.103 29.402l.22-1.367c.213-1.326.027-2.45-.537-3.25-.646-.914-1.81-1.476-3.461-1.67l-.282-.034-.116-.26c-.17-.378-.698-1.723-.368-3.119l.084-.352.36-.03c.192-.017.386-.025.578-.025 1.488 0 2.958.499 4.138 1.406 1.406 1.097 2.261 2.733 2.475 4.732l.013.126-.048.117c-.441 1.076-1.137 2.05-2.013 2.815l-1.043.91z" class="cls-3" transform="translate(-20.214 -11.846)"/>
                    <path d="M31.581 19.795c-.178 0-.356.007-.535.022-.292 1.236.175 2.438.337 2.8 1.793.212 3.078.842 3.811 1.88.647.916.857 2.157.623 3.618.822-.719 1.465-1.618 1.88-2.629-.2-1.86-.986-3.377-2.283-4.389-1.103-.847-2.452-1.302-3.833-1.302m0-1v1-1c1.598 0 3.176.536 4.442 1.51l.003.002.003.002c1.513 1.18 2.433 2.934 2.662 5.071l.027.252-.096.234c-.47 1.147-1.213 2.186-2.147 3.002l-2.085 1.821.44-2.733c.191-1.195.035-2.191-.453-2.882-.56-.794-1.607-1.286-3.111-1.463l-.564-.067-.232-.518c-.238-.532-.754-1.932-.397-3.439l.166-.704.722-.062c.205-.018.414-.026.62-.026z" class="cls-4" transform="translate(-20.214 -11.846)"/>
                </g>
                <g id="Path_8463" class="cls-2">
                    <path d="M9.927 38.738c-.856 0-1.803-.134-2.815-.399l-.127-.033-.094-.091c-.857-.828-1.511-1.862-1.894-2.99l-.46-1.36 1.205.78c1.137.735 2.157 1.108 3.033 1.108.223 0 .443-.027.658-.078l.104-.029c1.53-.437 2.126-2.158 2.273-2.675l.117-.414.426.054c1.294.163 2.321.55 3.053 1.148l.229.187-.054.29c-.1.544-.56 2.406-2.278 3.564-.923.622-2.058.938-3.376.938z" class="cls-3" transform="translate(-1.103 -21.831)"/>
                    <path d="M9.927 38.238c1.218 0 2.254-.284 3.097-.852 1.575-1.062 1.986-2.811 2.065-3.24-.663-.542-1.602-.888-2.798-1.039-.186.657-.86 2.52-2.62 3.02l-.114.032c-.255.062-.517.094-.78.094h-.002c-.977 0-2.083-.399-3.304-1.188.358 1.057.964 2.014 1.767 2.79.976.255 1.873.383 2.69.383m0 1c-.9 0-1.89-.14-2.943-.415l-.253-.066-.189-.183c-.913-.883-1.611-1.985-2.02-3.188l-.921-2.72 2.412 1.559c1.055.682 1.983 1.028 2.76 1.028.182 0 .36-.021.535-.063l.093-.025c1.28-.368 1.798-1.876 1.926-2.33l.235-.828.853.108c1.388.175 2.5.598 3.306 1.257l.458.374-.107.58c-.11.593-.61 2.622-2.49 3.89-1.007.678-2.237 1.022-3.656 1.022z" class="cls-4" transform="translate(-1.103 -21.831)"/>
                </g>
                <g id="Path_8464" class="cls-2">
                    <path d="M7.671 15.592c-1.104 0-2.383-.514-3.802-1.527l-.157-.113-.04-.189c-.113-.522-.171-1.058-.172-1.592.004-3.189 2.028-6.034 5.038-7.083l.464.872c-.806.604-1.39 1.431-1.69 2.393-.774 2.51.54 5.37 1.14 6.482l.35.649-.731.085c-.13.016-.265.023-.4.023z" class="cls-3" transform="translate(0 -1.171)"/>
                    <path d="M7.67 15.092c.117 0 .231-.006.343-.02-.66-1.222-2.003-4.192-1.178-6.867.328-1.056.982-1.982 1.868-2.645-2.813.98-4.7 3.631-4.703 6.61 0 .5.055.999.16 1.488 1.335.954 2.511 1.434 3.51 1.434m.001 1v-1 1c-1.21 0-2.588-.545-4.092-1.62l-.315-.225-.082-.378c-.12-.557-.18-1.128-.182-1.697.004-3.402 2.164-6.438 5.374-7.556l.928 1.745C8.58 6.9 8.058 7.64 7.79 8.5c-.239.775-.61 2.923 1.103 6.097l.7 1.297-1.464.171c-.15.018-.304.026-.458.026z" class="cls-4" transform="translate(0 -1.171)"/>
                </g>
                <g id="Path_8465" class="cls-2">
                    <path d="M17.518 14.394l-.2-.362c-.513-.93-2.118-4.181-1.25-6.998.459-1.487 1.524-2.644 3.166-3.44l.077-.037.085-.01c.28-.031.564-.048.845-.048 1.078 0 2.164.24 3.141.695l1.187.551-1.252.38c-1.569.477-2.6 1.245-3.064 2.283-.668 1.493.024 3.1.169 3.407l.078.164-.046.176c-.152.584-.785 2.536-2.543 3.11l-.393.13z" class="cls-3" transform="translate(-9.234)"/>
                    <path d="M20.241 4c-.262 0-.526.014-.789.044-1.511.732-2.49 1.787-2.906 3.137-.809 2.622.7 5.685 1.21 6.61 1.547-.506 2.108-2.353 2.214-2.762-.194-.41-.922-2.153-.173-3.825.527-1.179 1.662-2.037 3.375-2.557-.921-.428-1.922-.648-2.93-.648m0-1c1.15 0 2.308.256 3.351.741l2.374 1.103-2.505.76c-1.424.433-2.35 1.109-2.753 2.01-.578 1.292.036 2.716.165 2.988l.155.328-.091.352c-.169.646-.873 2.807-2.871 3.46l-.787.257-.4-.725c-.286-.52-.822-1.585-1.186-2.88-.473-1.68-.507-3.197-.104-4.507.501-1.624 1.654-2.883 3.426-3.742l.154-.074.169-.02c.298-.033.602-.05.902-.05z" class="cls-4" transform="translate(-9.234)"/>
                </g>
                <g id="Path_8466" class="cls-2">
                    <path d="M39.302 15.632l-.976-.011c-.286-1.358-1.04-2.58-2.126-3.444-1.1-.842-2.47-1.306-3.856-1.306-.106 0-.213.003-.319.008l-.855.044.375-.75.015-.04.002-.004.002-.004c.528-1.176 1.663-2.034 3.377-2.555l-.21-.734 1.077.633c1.388.815 2.456 2.028 3.089 3.507.633 1.48.773 3.09.405 4.656z" class="cls-3" transform="translate(-21 -2.925)"/>
                    <path d="M35.555 7.9l.005.017c-1.835.46-3.027 1.27-3.54 2.413l-.02.05c.115-.006.23-.009.344-.009 1.502 0 2.966.495 4.164 1.412 1.18.938 1.996 2.259 2.307 3.735.7-2.98-.621-6.067-3.26-7.618m-1.648-2.129l2.155 1.267c1.48.87 2.619 2.164 3.294 3.742.676 1.578.825 3.295.433 4.966l-1.952-.022c-.262-1.242-.952-2.362-1.944-3.153-1.014-.774-2.274-1.2-3.549-1.2-.097 0-.196.003-.294.008l-1.71.086.747-1.495.014-.034.003-.008.004-.007c.538-1.201 1.62-2.098 3.22-2.675l-.421-1.475z" class="cls-4" transform="translate(-21 -2.925)"/>
                </g>
            </g>
        </g>
    </g>
</svg>
