<svg xmlns="http://www.w3.org/2000/svg" width="13.893" height="14.401" viewBox="0 0 13.893 14.401"><defs><style>.a{fill:#fd980a;}.b,.c{fill:#ffce54;}.c{stroke:#000;}.d{fill:#ffce00;}</style></defs><g transform="translate(-12.002 -3.034)"><g transform="translate(15.415 3.306)"><g transform="translate(0.547)"><path class="a" d="M26.984,12v.818H21.006V12h5.978Z" transform="translate(-21.006 -12)"/></g><g transform="translate(2.992 7.567)"><path class="a" d="M31.09,39.85v2.486H30.006V39.85a3.529,3.529,0,0,0,.54.041A3.567,3.567,0,0,0,31.09,39.85Z" transform="translate(-30.006 -39.85)"/></g><g transform="translate(1.902 2.176)"><path class="a" d="M27.624,20.01a1.63,1.63,0,1,1-1.63,1.63,1.631,1.631,0,0,1,1.63-1.63Z" transform="translate(-25.994 -20.01)"/></g><g transform="translate(0 0.818)"><path class="b" d="M26.062,15.551v2.717a3.534,3.534,0,0,1-7.068,0V15.01h7.068ZM24.157,18a1.63,1.63,0,1,0-1.63,1.63A1.631,1.631,0,0,0,24.157,18Z" transform="translate(-18.994 -15.01)"/></g><g transform="translate(1.634 11.14)"><path class="c" d="M28.81,53.272v1.087a.271.271,0,0,0-.272.272H25.278a.273.273,0,0,0-.272-.272V53.272A.273.273,0,0,0,25.278,53h3.261A.271.271,0,0,0,28.81,53.272Z" transform="translate(-25.006 -53)"/></g><g transform="translate(0.272 10.053)"><path class="d" d="M26.515,49v3.8H19.994V49h6.521ZM25.16,51.445V50.359a.271.271,0,0,1-.272-.272H21.628a.273.273,0,0,1-.272.272v1.087a.273.273,0,0,1,.272.272h3.261A.271.271,0,0,1,25.16,51.445Z" transform="translate(-19.994 -49)"/></g></g><g transform="translate(12.002 3.034)"><g transform="translate(1.628 0.817)"><path class="d" d="M28.251,14.55H18.374c-.21,0-.38-.121-.38-.272s.17-.272.38-.272h9.877c.21,0,.38.121.38.272S28.461,14.55,28.251,14.55Z" transform="translate(-17.994 -14.007)"/></g><g transform="translate(1.629 4.077)"><path class="d" d="M23.315,30.081c-2.932,0-5.317-1.707-5.317-3.8,0-.15.17-.272.38-.272s.38.121.38.272c0,1.8,2.044,3.261,4.557,3.261s4.558-1.463,4.558-3.261c0-.15.17-.272.38-.272s.38.121.38.272c0,2.1-2.385,3.8-5.317,3.8Z" transform="translate(-17.998 -26.005)"/></g><g transform="translate(1.628 0.817)"><path class="d" d="M18.266,17.81a.271.271,0,0,1-.272-.272v-3.26a.272.272,0,1,1,.543,0v3.26A.271.271,0,0,1,18.266,17.81Z" transform="translate(-17.994 -14.007)"/></g><g transform="translate(11.722 0.817)"><path class="d" d="M44.278,17.81a.271.271,0,0,1-.272-.272v-3.26a.272.272,0,1,1,.543,0v3.26A.271.271,0,0,1,44.278,17.81Z" transform="translate(-44.006 -14.007)"/></g><g transform="translate(3.686)"><path class="d" d="M26.249,12.36H20.272A.271.271,0,0,1,20,12.089v-.817A.271.271,0,0,1,20.272,11h5.978a.271.271,0,0,1,.272.272v.817A.271.271,0,0,1,26.249,12.36Zm-5.706-.543h5.434v-.274H20.543Z" transform="translate(-20 -11)"/></g><g transform="translate(3.414 10.054)"><path class="d" d="M25.791,52.35H19.27A.271.271,0,0,1,19,52.079v-3.8A.271.271,0,0,1,19.27,48h6.522a.271.271,0,0,1,.272.272v3.8A.271.271,0,0,1,25.791,52.35Zm-6.25-.543H25.52V48.547H19.541Z" transform="translate(-18.998 -48.004)"/></g><g transform="translate(7.378 7.568)"><path class="d" d="M33.272,41.883A.271.271,0,0,1,33,41.611V39.125a.272.272,0,1,1,.543,0v2.486A.271.271,0,0,1,33.272,41.883Z" transform="translate(-33 -38.853)"/></g><g transform="translate(5.972 7.568)"><path class="d" d="M29.272,41.883A.271.271,0,0,1,29,41.611V39.125a.272.272,0,1,1,.543,0v2.486A.271.271,0,0,1,29.272,41.883Z" transform="translate(-29 -38.853)"/></g><g transform="translate(4.773 11.14)"><path class="d" d="M27.8,54.175H24.543a.271.271,0,0,1-.272-.272A.271.271,0,0,1,24,53.631V52.544a.271.271,0,0,1,.272-.272A.271.271,0,0,1,24.543,52H27.8a781.408,781.408,0,0,0,.543.543v1.087a253.24,253.24,0,0,1-.544.544Zm-3.062-.543h2.863a.548.548,0,0,1,.2-.2v-.689a.546.546,0,0,1-.2-.2H24.742a.548.548,0,0,1-.2.2v.689A.544.544,0,0,1,24.742,53.631Z" transform="translate(-24 -52.001)"/></g><g transform="translate(0 1.359)"><g transform="translate(0 2.174)"><path class="d" d="M13.9,26.176a1.9,1.9,0,0,1-1.9-1.9.272.272,0,0,1,.543,0A1.36,1.36,0,0,0,13.9,25.632a.272.272,0,1,1,0,.543Z" transform="translate(-12.002 -24.002)"/></g><g transform="translate(0)"><path class="d" d="M12.274,18.718A.271.271,0,0,1,12,18.446V16.272a.272.272,0,1,1,.543,0v2.174A.271.271,0,0,1,12.274,18.718Z" transform="translate(-12.002 -16)"/></g><path class="d" d="M13.9,16.543H12.274a.272.272,0,1,1,0-.543H13.9a.272.272,0,1,1,0,.543Z" transform="translate(-12.002 -16)"/><g transform="translate(1.63 3.805)"><path class="d" d="M18.442,30.545h-.169a.272.272,0,1,1,0-.543h.169a.272.272,0,1,1,0,.543Z" transform="translate(-18.002 -30.002)"/></g></g><g transform="translate(11.719 3.533)"><path class="d" d="M44.27,26.176a.272.272,0,0,1,0-.543,1.36,1.36,0,0,0,1.359-1.359.272.272,0,0,1,.543,0A1.9,1.9,0,0,1,44.27,26.176Z" transform="translate(-43.998 -24.002)"/></g><g transform="translate(13.35 1.359)"><path class="d" d="M50.27,18.718A.271.271,0,0,1,50,18.446V16.272a.272.272,0,1,1,.543,0v2.174A.271.271,0,0,1,50.27,18.718Z" transform="translate(-49.998 -16)"/></g><g transform="translate(11.722 1.359)"><path class="d" d="M45.906,16.543H44.278a.272.272,0,1,1,0-.543h1.628a.272.272,0,0,1,0,.543Z" transform="translate(-44.006 -16)"/></g><g transform="translate(11.065 5.163)"><path class="d" d="M43.817,30.545h-.169a.272.272,0,0,1,0-.543h.169a.272.272,0,1,1,0,.543Z" transform="translate(-43.377 -30.002)"/></g><g transform="translate(5.044 2.176)"><path class="d" d="M26.9,22.812a1.9,1.9,0,1,1,1.9-1.9A1.9,1.9,0,0,1,26.9,22.812Zm0-3.261a1.359,1.359,0,1,0,1.359,1.359A1.36,1.36,0,0,0,26.9,19.551Z" transform="translate(-24.998 -19.008)"/></g><g transform="translate(6.674 3.532)"><path class="d" d="M31.27,25.087A.271.271,0,0,1,31,24.815v-.543a.272.272,0,0,1,.543,0v.543A.271.271,0,0,1,31.27,25.087Z" transform="translate(-30.998 -24)"/></g></g></g></svg>