<svg xmlns="http://www.w3.org/2000/svg" width="18.14" height="15" viewBox="0 0 18.14 15"><defs><style>.a{fill:#fff;}</style></defs><g transform="translate(0 -44.308)"><g transform="translate(0 44.308)"><path class="a" d="M13.256,49.192H18.14V46.924a2.619,2.619,0,0,0-2.616-2.616H2.616A2.619,2.619,0,0,0,0,46.924v9.767a2.619,2.619,0,0,0,2.616,2.616H15.523a2.619,2.619,0,0,0,2.616-2.616V54.424H13.256a2.616,2.616,0,1,1,0-5.233Z" transform="translate(0 -44.308)"/></g><g transform="translate(11.686 50.238)"><path class="a" d="M331.416,211.692a1.57,1.57,0,1,0,0,3.14H336.3v-3.139h-4.884Zm.7,2.093h-.7a.523.523,0,0,1,0-1.046h.7a.523.523,0,1,1,0,1.046Z" transform="translate(-329.846 -211.692)"/></g></g></svg>